<svg xmlns="http://www.w3.org/2000/svg" viewBox="0 0 540 132" role="img" aria-labelledby="title desc">
  <title id="title">SayaraMatch</title>
  <desc id="desc">Professional SayaraMatch car marketplace logo for dark backgrounds</desc>
  <defs>
    <linearGradient id="sm-red" x1="18" y1="12" x2="108" y2="116" gradientUnits="userSpaceOnUse">
      <stop stop-color="#ff4050"/>
      <stop offset="1" stop-color="#d90f24"/>
    </linearGradient>
    <filter id="shadow" x="-20%" y="-20%" width="140%" height="150%">
      <feDropShadow dx="0" dy="8" stdDeviation="8" flood-color="#000" flood-opacity=".22"/>
    </filter>
  </defs>
  <g transform="translate(6 8)">
    <rect x="0" y="0" width="116" height="116" rx="30" fill="url(#sm-red)" filter="url(#shadow)"/>
    <path d="M23 72c8-19 18-31 35-31s27 12 35 31" fill="none" stroke="#fff" stroke-width="8" stroke-linecap="round"/>
    <path d="M31 71h54c4 0 8 3 9 7l2 8H20l2-8c1-4 5-7 9-7Z" fill="#fff"/>
    <path d="M35 69l7-12h32l7 12" fill="none" stroke="#fff" stroke-width="7" stroke-linejoin="round"/>
    <circle cx="38" cy="86" r="5" fill="#d90f24"/>
    <circle cx="78" cy="86" r="5" fill="#d90f24"/>
    <path d="M58 19c-10 0-18 8-18 18 0 14 18 30 18 30s18-16 18-30c0-10-8-18-18-18Z" fill="#111827"/>
    <circle cx="58" cy="37" r="7" fill="#fff"/>
  </g>
  <text x="150" y="62" font-family="Inter, Montserrat, Arial, sans-serif" font-size="45" font-weight="900" letter-spacing="-2" fill="#fff">SAYARA</text>
  <text x="150" y="103" font-family="Inter, Montserrat, Arial, sans-serif" font-size="45" font-weight="900" letter-spacing="-2" fill="#ff4050">MATCH</text>
  <path d="M344 75h154" stroke="#fff" stroke-width="5" stroke-linecap="round" opacity=".14"/>
  <text x="344" y="56" font-family="Inter, Montserrat, Arial, sans-serif" font-size="17" font-weight="800" letter-spacing="2" fill="#cbd5e1">THE RIGHT CAR</text>
  <text x="344" y="95" font-family="Inter, Montserrat, Arial, sans-serif" font-size="17" font-weight="800" letter-spacing="2" fill="#cbd5e1">THE RIGHT MATCH</text>
</svg>
