<svg xmlns="http://www.w3.org/2000/svg" viewBox="0 0 128 128" role="img" aria-labelledby="title">
  <title id="title">SayaraMatch mark</title>
  <defs>
    <linearGradient id="sm-red" x1="18" y1="12" x2="108" y2="116" gradientUnits="userSpaceOnUse">
      <stop stop-color="#ff4050"/>
      <stop offset="1" stop-color="#d90f24"/>
    </linearGradient>
    <filter id="shadow" x="-20%" y="-20%" width="140%" height="150%">
      <feDropShadow dx="0" dy="8" stdDeviation="8" flood-color="#d90f24" flood-opacity=".22"/>
    </filter>
  </defs>
  <rect x="10" y="10" width="108" height="108" rx="30" fill="url(#sm-red)" filter="url(#shadow)"/>
  <path d="M31 77c8-19 17-31 33-31s25 12 33 31" fill="none" stroke="#fff" stroke-width="8" stroke-linecap="round"/>
  <path d="M39 75h50c4 0 8 3 9 7l2 8H28l2-8c1-4 5-7 9-7Z" fill="#fff"/>
  <path d="M43 73l7-12h29l7 12" fill="none" stroke="#fff" stroke-width="7" stroke-linejoin="round"/>
  <circle cx="44" cy="90" r="5" fill="#d90f24"/>
  <circle cx="84" cy="90" r="5" fill="#d90f24"/>
  <path d="M64 25c-10 0-18 8-18 18 0 14 18 30 18 30s18-16 18-30c0-10-8-18-18-18Z" fill="#111827"/>
  <circle cx="64" cy="43" r="7" fill="#fff"/>
</svg>
